HIERARCHY
ROOT Hips
{
	OFFSET 0.000000 0.000000 0.000000
	CHANNELS 6 Xposition Yposition Zposition Zrotation Yrotation Xrotation 
	JOINT LHipJoint
	{
		OFFSET 0.000000 0.000000 0.000000
		CHANNELS 3 Zrotation Yrotation Xrotation
		JOINT LeftUpLeg
		{
			OFFSET 1.363060 -1.794630 0.839290
			CHANNELS 3 Zrotation Yrotation Xrotation
			JOINT LeftLeg
			{
				OFFSET 2.448110 -6.726130 0.000000
				CHANNELS 3 Zrotation Yrotation Xrotation
				JOINT LeftFoot
				{
					OFFSET 2.562200 -7.039590 0.000000
					CHANNELS 3 Zrotation Yrotation Xrotation
					JOINT LeftToeBase
					{
						OFFSET 0.157640 -0.433110 2.322550
						CHANNELS 3 Zrotation Yrotation Xrotation
						End Site
						{
							OFFSET 0.000000 0.000000 0.000000
						}
					}
				}
			}
		}
	}
	JOINT RHipJoint
	{
		OFFSET 0.000000 0.000000 0.000000
		CHANNELS 3 Zrotation Yrotation Xrotation
		JOINT RightUpLeg
		{
			OFFSET -1.305520 -1.794630 0.839290
			CHANNELS 3 Zrotation Yrotation Xrotation
			JOINT RightLeg
			{
				OFFSET -2.542530 -6.985550 0.000000
				CHANNELS 3 Zrotation Yrotation Xrotation
				JOINT RightFoot
				{
					OFFSET -2.568260 -7.056230 0.000000
					CHANNELS 3 Zrotation Yrotation Xrotation
					JOINT RightToeBase
					{
						OFFSET -0.164730 -0.452590 2.363150
						CHANNELS 3 Zrotation Yrotation Xrotation
						End Site
						{
							OFFSET 0.000000 0.000000 0.000000
						}
					}
				}
			}
		}
	}
	JOINT LowerBack
	{
		OFFSET 0.000000 0.000000 0.000000
		CHANNELS 3 Zrotation Yrotation Xrotation
		JOINT Spine
		{
			OFFSET 0.028270 2.035590 -0.193380
			CHANNELS 3 Zrotation Yrotation Xrotation
			JOINT Spine1
			{
				OFFSET 0.056720 2.048850 -0.042750
				CHANNELS 3 Zrotation Yrotation Xrotation
				JOINT Neck
				{
					OFFSET 0.000000 0.000000 0.000000
					CHANNELS 3 Zrotation Yrotation Xrotation
					JOINT Neck1
					{
						OFFSET -0.054170 1.746240 0.172020
						CHANNELS 3 Zrotation Yrotation Xrotation
						JOINT Head
						{
							OFFSET 0.104070 1.761360 -0.123970
							CHANNELS 3 Zrotation Yrotation Xrotation
							End Site
							{
								OFFSET 0.000000 0.000000 0.000000
							}
						}
					}
				}
				JOINT LeftShoulder
				{
					OFFSET 0.000000 0.000000 0.000000
					CHANNELS 3 Zrotation Yrotation Xrotation
					JOINT LeftArm
					{
						OFFSET 3.362410 1.200890 -0.311210
						CHANNELS 3 Zrotation Yrotation Xrotation
						JOINT LeftForeArm
						{
							OFFSET 4.983000 -0.000000 -0.000000
							CHANNELS 3 Zrotation Yrotation Xrotation
							JOINT LeftHand
							{
								OFFSET 3.483560 -0.000000 -0.000000
								CHANNELS 3 Zrotation Yrotation Xrotation
								JOINT LeftFingerBase
								{
									OFFSET 0.000000 0.000000 0.000000
									CHANNELS 3 Zrotation Yrotation Xrotation
									JOINT LeftHandIndex1
									{
										OFFSET 0.715260 -0.000000 -0.000000
										CHANNELS 3 Zrotation Yrotation Xrotation
										End Site
										{
											OFFSET 0.000000 0.000000 0.000000
										}
									}
								}
								JOINT LThumb
								{
									OFFSET 0.000000 0.000000 0.000000
									CHANNELS 3 Zrotation Yrotation Xrotation
									End Site
									{
										OFFSET 0.000000 0.000000 0.000000
									}
								}
							}
						}
					}
				}
				JOINT RightShoulder
				{
					OFFSET 0.000000 0.000000 0.000000
					CHANNELS 3 Zrotation Yrotation Xrotation
					JOINT RightArm
					{
						OFFSET -3.136600 1.374050 -0.404650
						CHANNELS 3 Zrotation Yrotation Xrotation
						JOINT RightForeArm
						{
							OFFSET -5.241900 -0.000000 -0.000000
							CHANNELS 3 Zrotation Yrotation Xrotation
							JOINT RightHand
							{
								OFFSET -3.444170 -0.000000 -0.000000
								CHANNELS 3 Zrotation Yrotation Xrotation
								JOINT RightFingerBase
								{
									OFFSET 0.000000 0.000000 0.000000
									CHANNELS 3 Zrotation Yrotation Xrotation
									JOINT RightHandIndex1
									{
										OFFSET -0.622530 -0.000000 -0.000000
										CHANNELS 3 Zrotation Yrotation Xrotation
										End Site
										{
											OFFSET 0.000000 0.000000 0.000000
										}
									}
								}
								JOINT RThumb
								{
									OFFSET 0.000000 0.000000 0.000000
									CHANNELS 3 Zrotation Yrotation Xrotation
									End Site
									{
										OFFSET 0.000000 0.000000 0.000000
									}
								}
							}
						}
					}
				}
			}
		}
	}
}
MOTION
Frames: 12
Frame Time: 0.008333
2.606147 17.760942 -4.843594 1.033989 2.877026 2.279562 -5.466907 -2.675726 -0.417387 -14.702119 2.951165 -24.859777 2.711653 12.706541 35.530835 -0.488633 4.590399 6.783003 0.504900 -4.555200 -12.644200 3.832269 1.260065 1.086727 3.309002 0.136793 2.178518 -2.708251 -11.361590 30.974400 4.345149 -18.685138 1.703530 -1.353000 7.363500 -20.796900 9.399690 1.760381 14.596907 8.789301 4.376455 1.426329 4.853399 2.133170 -4.535271 1.522989 -2.211076 -15.641239 -12.077257 -0.824738 22.501713 -8.613400 -1.177800 13.147100 3.422153 -0.732437 -0.087383 -38.477982 7.623670 -20.672419 28.426028 -38.356411 -9.053247 0.236933 0.585492 -4.353670 17.936251 3.944115 1.066800 -7.125000 0.000000 0.000000 -7.305400 33.433900 2.085900 -1.778665 1.083822 0.652062 18.649506 8.101033 -29.912419 -18.088484 26.510033 -4.179843 0.127642 -0.403974 -3.324113 -17.419484 -3.198237 0.872900 7.125000 0.000000 0.000000 7.353500 -32.818100 2.210100 
2.636988 17.755852 -4.795385 1.120952 2.758749 2.361382 -5.464287 -2.674487 -0.415565 -14.902624 2.991586 -24.873735 2.751851 12.759842 35.707419 -0.509707 4.633125 6.563797 0.510300 -4.579000 -12.711500 3.821833 1.250910 1.086070 3.123334 0.339895 2.270738 -2.721093 -11.374075 31.007749 4.338395 -18.699380 1.926688 -1.373200 7.415900 -20.953700 9.394140 1.794992 14.653434 8.822518 4.434263 1.420446 4.880334 2.162514 -4.585939 1.482198 -2.207733 -15.662942 -12.141479 -0.803441 22.459714 -8.632500 -1.183200 13.138100 3.423774 -0.739619 -0.089912 -38.208296 7.794575 -20.884416 28.477967 -38.403960 -9.080416 0.237632 0.586325 -4.452425 17.968080 3.862225 1.042600 -7.125000 0.000000 0.000000 -7.272600 33.349200 2.091400 -1.781377 1.085334 0.649613 19.021442 8.093791 -29.780901 -18.050706 26.465820 -4.165020 0.126948 -0.404424 -3.203388 -17.447635 -3.188604 0.871300 7.125000 0.000000 0.000000 7.329700 -32.808700 2.204500 
2.666632 17.751260 -4.746977 1.177693 2.631723 2.439808 -5.460650 -2.672800 -0.412454 -15.075324 3.054592 -24.887448 2.792389 12.811796 35.878955 -0.537417 4.701869 6.335228 0.514800 -4.599000 -12.768300 3.812698 1.243254 1.084518 2.972269 0.527958 2.351069 -2.733902 -11.387922 31.045004 4.331892 -18.714095 2.138161 -1.389700 7.458500 -21.081100 9.401193 1.827513 14.727100 8.855534 4.493819 1.419364 4.898167 2.192065 -4.638222 1.479479 -2.187924 -15.713447 -12.225349 -0.762626 22.423242 -8.668400 -1.178700 13.141900 3.425786 -0.747510 -0.092338 -37.962766 7.967575 -21.105422 28.530648 -38.451742 -9.107543 0.237290 0.587089 -4.482141 17.953088 3.812239 1.025500 -7.125000 0.000000 0.000000 -7.279600 33.296100 2.102800 -1.783652 1.086705 0.647214 19.395559 8.085743 -29.679256 -18.011750 26.419847 -4.149609 0.126263 -0.404725 -3.102776 -17.459013 -3.173307 0.867000 7.125000 0.000000 0.000000 7.318900 -32.793100 2.204000 
2.694778 17.747168 -4.698969 1.195386 2.504038 2.521044 -5.455995 -2.670991 -0.409150 -15.206926 3.131808 -24.907036 2.832715 12.861619 36.043576 -0.570179 4.790550 6.102285 0.517600 -4.611300 -12.803200 3.806140 1.237736 1.081904 2.871750 0.704402 2.413043 -2.747031 -11.403401 31.085748 4.331114 -18.749959 2.342935 -1.404700 7.497000 -21.196300 9.427979 1.855976 14.811585 8.889471 4.552731 1.420158 4.906043 2.220321 -4.692322 1.475843 -2.170168 -15.754715 -12.291489 -0.724277 22.404422 -8.696900 -1.172300 13.151400 3.427516 -0.754040 -0.095156 -37.741171 8.141014 -21.321515 28.584384 -38.500834 -9.135991 0.237168 0.587933 -4.507379 17.951777 3.770569 1.011900 -7.125000 0.000000 0.000000 -7.276500 33.251800 2.109800 -1.786085 1.089281 0.645323 19.771337 8.078095 -29.622606 -17.966603 26.365396 -4.131009 0.125342 -0.404707 -2.961177 -17.426120 -3.151773 0.858600 7.125000 0.000000 0.000000 7.343400 -32.770100 2.215600 
2.721328 17.743775 -4.651359 1.189372 2.371034 2.612151 -5.450561 -2.669593 -0.406222 -15.313331 3.223923 -24.940019 2.872229 12.909034 36.200884 -0.606460 4.892903 5.865707 0.519300 -4.618700 -12.824100 3.801545 1.234102 1.078257 2.801832 0.868246 2.450047 -2.760399 -11.419482 31.128060 4.335015 -18.802468 2.544029 -1.414800 7.522700 -21.273500 9.455763 1.884999 14.896139 8.920171 4.612399 1.422644 4.909501 2.248075 -4.742530 1.467197 -2.158768 -15.830325 -12.336140 -0.689758 22.409680 -8.718400 -1.166300 13.179900 3.428402 -0.758705 -0.099032 -37.550228 8.340149 -21.494525 28.664810 -38.575032 -9.180215 0.236314 0.588752 -4.559493 17.931903 3.732338 0.998300 -7.125000 0.000000 0.000000 -7.288400 33.210600 2.120600 -1.788605 1.094802 0.644246 20.142143 8.052892 -29.568716 -17.921684 26.310519 -4.112060 0.124369 -0.404385 -2.850829 -17.351893 -3.115765 0.843700 7.125000 0.000000 0.000000 7.399800 -32.731400 2.239800 
2.746180 17.740880 -4.604149 1.166195 2.244557 2.716146 -5.445102 -2.668883 -0.404628 -15.398191 3.312075 -24.982534 2.910208 12.953461 36.348985 -0.645289 5.005757 5.629355 0.520100 -4.622200 -12.834100 3.798773 1.231796 1.074134 2.756847 1.013676 2.463220 -2.774263 -11.435918 31.171089 4.343322 -18.871498 2.744255 -1.422000 7.541100 -21.328600 9.480838 1.915647 14.968967 8.946769 4.670580 1.429311 4.910837 2.275138 -4.780580 1.430403 -2.164213 -15.881176 -12.335737 -0.682932 22.403792 -8.713100 -1.170300 13.191600 3.428669 -0.762335 -0.102553 -37.390780 8.516311 -21.668923 28.738759 -38.642807 -9.220641 0.235564 0.587686 -4.567916 17.878466 3.637037 0.965400 -7.125000 0.000000 0.000000 -7.321600 33.111000 2.148200 -1.791825 1.101123 0.643208 20.507483 7.993431 -29.490231 -17.886994 26.268964 -4.097477 0.124193 -0.403700 -2.800948 -17.255088 -3.124213 0.841700 7.125000 0.000000 0.000000 7.478400 -32.738500 2.262700 
2.769436 17.738485 -4.556939 1.127960 2.124824 2.830993 -5.439762 -2.668740 -0.403756 -15.462302 3.396939 -25.029893 2.945821 12.994269 36.486089 -0.683268 5.115688 5.393554 0.520600 -4.624300 -12.839900 3.797388 1.230254 1.070005 2.733693 1.142641 2.462303 -2.787231 -11.451147 31.209522 4.355235 -18.952988 2.936772 -1.426400 7.552100 -21.361800 9.499260 1.945644 15.020803 8.969504 4.722762 1.436203 4.912872 2.299815 -4.807397 1.386773 -2.173796 -15.884637 -12.310560 -0.693049 22.373791 -8.691200 -1.178800 13.176500 3.428724 -0.766939 -0.105500 -37.258219 8.685328 -21.813715 28.802068 -38.700826 -9.255447 0.235295 0.586712 -4.573621 17.846385 3.549953 0.936300 -7.125000 0.000000 0.000000 -7.338500 33.020400 2.169400 -1.795351 1.106357 0.642235 20.861217 7.905987 -29.374279 -17.854415 26.230406 -4.083655 0.124648 -0.402513 -2.791027 -17.117715 -3.172977 0.850200 7.125000 0.000000 0.000000 7.593700 -32.786700 2.289200 
2.791195 17.736488 -4.509828 1.085948 2.014567 2.960700 -5.435095 -2.669206 -0.404209 -15.514925 3.466566 -25.081294 2.977898 13.030695 36.609459 -0.718485 5.216683 5.163207 0.521300 -4.627400 -12.848900 3.797143 1.229148 1.066094 2.718680 1.257560 2.446252 -2.798745 -11.463646 31.238900 4.369099 -19.043224 3.133564 -1.431300 7.564700 -21.399500 9.495060 1.975790 15.050646 8.989036 4.766861 1.445502 4.926304 2.321091 -4.819547 1.331000 -2.187045 -15.880738 -12.256089 -0.712368 22.331080 -8.652200 -1.189800 13.151100 3.428639 -0.770940 -0.107779 -37.161679 8.834218 -21.948253 28.840058 -38.735022 -9.275788 0.235481 0.585228 -4.558262 17.818311 3.452926 0.904500 -7.125000 0.000000 0.000000 -7.351500 32.920200 2.191200 -1.799202 1.111814 0.641446 21.194646 7.788606 -29.215950 -17.826191 26.197408 -4.071652 0.125763 -0.401122 -2.825327 -16.972189 -3.263062 0.870800 7.125000 0.000000 0.000000 7.719500 -32.877300 2.310700 
2.811556 17.734891 -4.462119 1.036986 1.925912 3.095094 -5.431508 -2.669404 -0.405001 -15.549868 3.509502 -25.117524 3.005931 13.062401 36.717818 -0.750019 5.305185 4.940801 0.523300 -4.635900 -12.873000 3.797873 1.227836 1.063098 2.717957 1.356239 2.434395 -2.807426 -11.472586 31.255373 4.384589 -19.138756 3.319425 -1.436000 7.576400 -21.434700 9.482454 2.001417 15.063735 9.002032 4.799845 1.456355 4.937916 2.337687 -4.820341 1.312882 -2.187591 -15.851906 -12.212937 -0.730582 22.260888 -8.622000 -1.197200 13.106300 3.429121 -0.776850 -0.108637 -37.086244 8.947303 -22.059428 28.852368 -38.746235 -9.282394 0.235907 0.586045 -4.559861 17.844109 3.454312 0.906000 -7.125000 0.000000 0.000000 -7.331100 32.921400 2.184800 -1.802934 1.114222 0.640386 21.508898 7.659508 -29.044593 -17.789961 26.154750 -4.056697 0.127513 -0.399648 -2.881272 -16.840273 -3.404313 0.907200 7.125000 0.000000 0.000000 7.839600 -33.021300 2.319700 
2.830720 17.733694 -4.414010 0.997327 1.845060 3.235181 -5.429250 -2.669369 -0.406025 -15.584470 3.529136 -25.141824 3.029770 13.089650 36.810909 -0.778638 5.385034 4.730011 0.528100 -4.657000 -12.932800 3.798852 1.225916 1.060785 2.709539 1.450788 2.424584 -2.813866 -11.477759 31.259061 4.398631 -19.232311 3.514940 -1.444200 7.597300 -21.497300 9.441978 2.025710 15.065309 9.006935 4.823583 1.469025 4.956789 2.350626 -4.812296 1.326618 -2.171428 -15.829962 -12.185375 -0.732436 22.181572 -8.603300 -1.196200 13.061200 3.430142 -0.783543 -0.108553 -37.045871 9.040861 -22.153497 28.842314 -38.735985 -9.275713 0.236277 0.586285 -4.581676 17.854311 3.433876 0.900100 -7.125000 0.000000 0.000000 -7.321400 32.900300 2.185700 -1.806299 1.114956 0.639647 21.793220 7.526447 -28.886110 -17.737127 26.090617 -4.034591 0.129108 -0.398272 -2.912367 -16.722938 -3.548453 0.944600 7.125000 0.000000 0.000000 7.948600 -33.168300 2.324000 
2.848785 17.732895 -4.365503 0.971792 1.764567 3.374206 -5.427927 -2.668701 -0.406536 -15.625550 3.533635 -25.151419 3.050429 13.113892 36.893080 -0.805080 5.458764 4.530456 0.536700 -4.693900 -13.037600 3.799385 1.223180 1.059227 2.685761 1.547429 2.426245 -2.817013 -11.478375 31.248592 4.408354 -19.310148 3.706275 -1.451600 7.615800 -21.553100 9.374227 2.050282 15.066392 8.997845 4.842101 1.483057 4.974262 2.361519 -4.801664 1.374137 -2.144619 -15.818432 -12.172868 -0.725902 22.101760 -8.598100 -1.189700 13.019700 3.431501 -0.790590 -0.107927 -37.029463 9.125451 -22.214280 28.819022 -38.712859 -9.261176 0.235964 0.587060 -4.621335 17.846549 3.442871 0.902300 -7.125000 0.000000 0.000000 -7.328700 32.908800 2.186300 -1.809506 1.114638 0.639440 22.051750 7.393116 -28.757839 -17.663987 25.999928 -4.003678 0.129997 -0.397052 -2.919856 -16.615948 -3.650566 0.969300 7.125000 0.000000 0.000000 8.045500 -33.271800 2.332500 
2.865953 17.732596 -4.316595 0.958368 1.692370 3.515828 -5.427429 -2.667514 -0.407638 -15.671410 3.514243 -25.150952 3.069449 13.136616 36.969047 -0.831789 5.535754 4.345151 0.548200 -4.743400 -13.178000 3.799737 1.219796 1.058568 2.649026 1.644683 2.435849 -2.817491 -11.475059 31.225709 4.412941 -19.371864 3.903490 -1.457300 7.630100 -21.596100 9.286732 2.070857 15.061869 8.975130 4.850417 1.496580 4.988147 2.367407 -4.786349 1.425524 -2.115457 -15.837491 -12.161193 -0.712133 22.031929 -8.595900 -1.180600 12.991700 3.433069 -0.795949 -0.107026 -37.037456 9.190126 -22.259214 28.773349 -38.668440 -9.233479 0.235481 0.588089 -4.660435 17.833133 3.470005 0.909900 -7.125000 0.000000 0.000000 -7.342100 32.935800 2.185600 -1.812798 1.114396 0.640119 22.281110 7.278770 -28.709454 -17.562567 25.871910 -3.960578 0.129557 -0.396122 -2.847658 -16.520843 -3.677524 0.971900 7.125000 0.000000 0.000000 8.125500 -33.297800 2.350900 
